<svg width="233" height="57" viewBox="0 0 233 57" fill="none" xmlns="http://www.w3.org/2000/svg">
<g clip-path="url(#clip0)">
<path fill-rule="evenodd" clip-rule="evenodd" d="M160.3 14.1V25.8H150.7V14.1H145.2V42.4H150.7V30.8H160.3V42.5H165.8V14.1H160.3ZM130.6 18.4C133.3 18.4 134.9 20 135.4 22.9H141C140.2 16.7 136 13.5 130.6 13.5C127.6 13.5 125 14.5 123 16.6C121.8 17.8 121 19.2 120.7 20.8C120.4 22.4 120.2 25.2 120.2 28.3C120.2 31.4 120.4 34.2 120.7 35.8C121 37.4 121.8 38.8 123 40C125.1 42.1 127.6 43.1 130.6 43.1C136 43.1 140.3 39.9 141 33.7H135.4C135 36.6 133.3 38.2 130.6 38.2C129.1 38.2 127.9 37.7 127.1 36.7C125.9 35.5 125.7 33.7 125.7 28.3C125.7 22.8 125.9 21.1 127.1 19.9C127.9 18.9 129.1 18.4 130.6 18.4ZM97.8 42.4H116.4V37.5H103.3V30.7H114.5V25.8H103.3V19H116.4V14.1H97.8V42.4ZM73.7 19.1H81.1V42.5H86.6V19.1H94V14.2H73.7V19.1ZM64.8 33C64.8 36.3 62.9 38.2 59.9 38.2C56.9 38.2 55 36.3 55 33V14.1H49.5V33.1C49.5 39.1 54.1 43 59.9 43C65.7 43 70.3 39.1 70.3 33.1V14.1H64.8V33ZM34.1 14.1H28.6V42.4H47V37.5H34.1V14.1ZM9 32.8L12.6 22.5L16 32.8H9ZM10.3 14.1L0 42.4H5.8L7.5 37.4H17.5L19.2 42.4H25L14.6 14.1H10.3Z" fill="#706F6F"/>
<path fill-rule="evenodd" clip-rule="evenodd" d="M207.8 30.8H206.5V56.6H211.5C212.5 55.3 213.4 53.8 214.1 52.2C217.2 44.3 214.5 35.5 207.8 30.8ZM215.1 56.6H232.3V45.8C224.8 45.5 218 49.9 215.1 56.6ZM213 30.8C215.9 38.6 223.9 43.5 232.3 42.3V30.8H213Z" fill="#D60B52"/>
<path fill-rule="evenodd" clip-rule="evenodd" d="M219.9 50.1C222.5 51.6 224.8 53.9 226.3 56.6H232.2V45.8C227.6 45.6 223.3 47.2 219.9 50.1ZM206.5 45.1V56.6H211.5C212.5 55.3 213.4 53.8 214.1 52.2C215.5 48.8 215.8 45.2 215.1 41.9C212.4 43.7 209.5 44.8 206.5 45.1ZM225.8 30.8H213C214.8 35.6 218.5 39.3 223 41.1C222.9 37.4 223.9 33.8 225.8 30.8Z" fill="#A61F5E"/>
<path fill-rule="evenodd" clip-rule="evenodd" d="M194.8 43.7C198.1 40.2 200.5 35.7 201.5 30.8H175.7V56.6H201.5C200.5 51.6 198.1 47.2 194.8 43.7Z" fill="#64B8E1"/>
<path fill-rule="evenodd" clip-rule="evenodd" d="M194.2 30.8H175.7V35.5C180.3 35.5 184.6 36.7 188.3 38.7C190.7 36.4 192.6 33.7 194.2 30.8ZM188.3 48.6C184.5 50.7 180.2 51.8 175.7 51.8V56.5H194.2C192.6 53.6 190.7 51 188.3 48.6Z" fill="#BEE2E9"/>
<path fill-rule="evenodd" clip-rule="evenodd" d="M175.7 35.5V41C177.8 41.7 179.9 42.6 181.8 43.7C184.2 42.3 186.4 40.6 188.3 38.7C184.6 36.6 180.3 35.5 175.7 35.5ZM175.7 46.4V51.9C180.3 51.9 184.6 50.7 188.3 48.7C186.4 46.8 184.2 45.1 181.8 43.7C179.9 44.8 177.8 45.7 175.7 46.4Z" fill="#0085BA"/>
<path fill-rule="evenodd" clip-rule="evenodd" d="M206.5 25.8H232.3V14.7H206.5V25.8ZM206.5 0V12.3H232.3V0H206.5Z" fill="#BCCF00"/>
<path fill-rule="evenodd" clip-rule="evenodd" d="M206.5 22.3H232.3V17H206.5V22.3ZM206.5 0V9.1H232.3V0H206.5Z" fill="#3AAA35"/>
<path fill-rule="evenodd" clip-rule="evenodd" d="M189.1 18C187.4 16.9 185.9 15.5 184.9 13.9C184.5 12.1 184.7 10.1 185.8 8.4C187.9 5 192.4 4 195.7 6C199.1 8.1 200.1 12.5 198 15.9C197.7 16.4 197.3 16.9 196.8 17.3C195.6 18.1 194.3 18.6 192.9 18.7C196.1 19 199.4 17.6 201.5 14.9V0H175.7V25.8H201.5V19C197.6 20.6 193 20.4 189.1 18Z" fill="#FBBA00"/>
<path fill-rule="evenodd" clip-rule="evenodd" d="M183.7 11.8C182.9 8.7 183.3 5.3 185.1 2.4C185.7 1.5 186.3 0.7 187 0H184.1C182.1 3.8 182.1 8.1 183.7 11.8ZM197.7 25.8H201.6V23.2C200.4 24.3 199.1 25.1 197.7 25.8ZM177.2 0H175.7V2.2C175.8 2.1 175.8 2 175.9 1.8C176.3 1.2 176.8 0.6 177.2 0ZM175.7 19.2V25.8H182.8C182.3 25.6 181.8 25.3 181.4 25C179 23.5 177.1 21.5 175.7 19.2Z" fill="#F39200"/>
<path fill-rule="evenodd" clip-rule="evenodd" d="M189.1 18C182.9 14.2 180.8 6.3 184.2 0H180.3C176.1 6.8 178.2 15.8 185 20C190.4 23.3 197 22.7 201.7 19C197.6 20.6 193 20.4 189.1 18ZM198.9 0.8C198.4 0.5 197.9 0.2 197.3 0H190.2C188.3 0.7 186.6 2.1 185.5 4C184.6 5.4 184.2 7 184.1 8.5C184.3 7.6 184.6 6.8 185.1 6C187.5 2.1 192.7 0.8 196.7 3.3C200.6 5.7 201.9 10.9 199.4 14.9C198 17.2 195.5 18.6 193 18.9C196.2 19.2 199.5 17.8 201.6 15.1V3.2C200.8 2.3 199.9 1.4 198.9 0.8Z" fill="#EF7D00"/>
<path d="M67.4 54.2L68.2 56.5H69.2L66.7 49.1H65.5L63 56.6H64L64.8 54.3H67.4V54.2ZM65 53.5L65.7 51.4C65.8 51.2 65.8 50.9 65.9 50.7C66 50.5 66 50.3 66.1 50C66.2 50.2 66.2 50.4 66.3 50.7C66.4 50.9 66.4 51.2 66.5 51.4L67.2 53.5H65ZM70.3 56.6H74.4V55.8H71.2V49.2H70.2V56.6H70.3ZM75.1 49.2V53.6C75.1 54.2 75.2 54.7 75.3 55.1C75.4 55.5 75.6 55.8 75.9 56.1C76.1 56.4 76.4 56.5 76.7 56.6C77 56.7 77.4 56.8 77.8 56.8C78.2 56.8 78.6 56.7 78.9 56.6C79.2 56.5 79.5 56.3 79.8 56C80.1 55.7 80.2 55.4 80.4 55C80.5 54.6 80.6 54.1 80.6 53.5V49.2H79.6V53.6C79.6 54.1 79.5 54.6 79.4 54.9C79.3 55.2 79 55.5 78.8 55.7C78.5 55.9 78.2 55.9 77.8 55.9C77.5 55.9 77.2 55.8 76.9 55.7C76.6 55.5 76.4 55.3 76.3 54.9C76.2 54.6 76.1 54.1 76.1 53.6V49.2H75.1ZM83.6 56.6H84.6V50H86.9V49.2H81.4V50H83.7V56.6H83.6ZM91.5 52.3H88.6V50H91.6V49.2H87.6V56.6H91.8V55.8H88.6V53.1H91.5V52.3ZM98 55.6C97.9 55.7 97.7 55.7 97.6 55.8C97.4 55.8 97.3 55.9 97.1 55.9C96.9 55.9 96.7 55.9 96.5 55.9C96 55.9 95.6 55.8 95.3 55.7C94.9 55.6 94.7 55.4 94.4 55.1C94.2 54.8 94 54.5 93.8 54.2C93.7 53.8 93.6 53.4 93.6 53C93.6 52.5 93.7 52.1 93.8 51.7C93.9 51.3 94.1 51 94.4 50.7C94.7 50.4 95 50.2 95.3 50.1C95.7 50 96 49.9 96.5 49.9C96.8 49.9 97.1 49.9 97.3 50C97.6 50.1 97.8 50.1 98 50.2L98.2 49.4C98.1 49.4 98 49.3 97.8 49.3C97.6 49.3 97.4 49.2 97.2 49.2C97 49.2 96.7 49.1 96.4 49.1C95.8 49.1 95.3 49.2 94.8 49.4C94.3 49.6 93.9 49.9 93.6 50.2C93.3 50.5 93 51 92.8 51.4C92.6 51.9 92.5 52.4 92.5 53C92.5 53.6 92.6 54.1 92.8 54.6C93 55.1 93.2 55.5 93.6 55.8C93.9 56.1 94.3 56.4 94.8 56.5C95.2 56.7 95.7 56.7 96.3 56.7C96.6 56.7 96.9 56.7 97.1 56.6C97.4 56.6 97.6 56.5 97.8 56.5C98 56.4 98.1 56.4 98.3 56.3L98 55.6ZM99.4 49.2V56.6H100.4V53.1H104V56.6H105V49.2H104V52.3H100.4V49.2H99.4ZM106.1 53.2V54H108.8V53.3H106.1V53.2ZM115.8 52.7H113.4V53.5H114.9V55.7C114.8 55.8 114.6 55.8 114.4 55.8C114.2 55.8 113.9 55.9 113.6 55.9C113.2 55.9 112.8 55.8 112.4 55.7C112.1 55.6 111.8 55.4 111.5 55.1C111.2 54.8 111.1 54.5 110.9 54.2C110.8 53.8 110.7 53.4 110.7 52.9C110.7 52.4 110.8 52 110.9 51.7C111 51.3 111.2 51 111.5 50.8C111.8 50.5 112.1 50.3 112.4 50.2C112.8 50.1 113.2 50 113.6 50C113.8 50 114.1 50 114.3 50C114.5 50 114.7 50.1 114.8 50.1C115 50.1 115.1 50.2 115.2 50.3L115.4 49.5C115.3 49.4 115.1 49.4 115 49.3C114.8 49.2 114.6 49.2 114.4 49.2C114.2 49.2 113.9 49.1 113.6 49.1C113 49.1 112.4 49.2 111.9 49.4C111.4 49.6 111 49.9 110.6 50.2C110.3 50.5 110 50.9 109.8 51.4C109.6 51.9 109.5 52.4 109.5 52.9C109.5 53.3 109.5 53.6 109.6 54C109.7 54.3 109.8 54.7 110 54.9C110.2 55.2 110.3 55.4 110.6 55.6C111 55.9 111.4 56.2 111.8 56.4C112.3 56.6 112.8 56.6 113.3 56.6C113.6 56.6 113.9 56.6 114.2 56.5C114.5 56.5 114.7 56.4 115 56.3C115.2 56.2 115.4 56.2 115.6 56.1V52.7H115.8ZM117.2 56.6H118.2V53.4H119.1C119.4 53.4 119.6 53.5 119.8 53.6C120 53.7 120.2 53.8 120.3 54.1C120.4 54.3 120.5 54.6 120.6 54.9C120.7 55.4 120.8 55.7 120.9 56C121 56.3 121.1 56.5 121.1 56.6H122.1C122 56.5 121.9 56.2 121.8 55.9C121.7 55.6 121.6 55.1 121.5 54.6C121.4 54.2 121.3 53.9 121.1 53.6C120.9 53.3 120.7 53.2 120.4 53.1C120.7 53 120.9 52.9 121.1 52.7C121.3 52.5 121.5 52.3 121.6 52.1C121.7 51.9 121.8 51.6 121.8 51.2C121.8 50.9 121.7 50.6 121.6 50.4C121.5 50.2 121.4 50 121.2 49.8C121 49.7 120.9 49.5 120.7 49.5C120.5 49.4 120.3 49.3 120 49.3C119.7 49.3 119.4 49.2 119.1 49.2C118.9 49.2 118.7 49.2 118.4 49.2C118.2 49.2 118 49.2 117.8 49.3C117.6 49.3 117.4 49.4 117.3 49.4V56.6H117.2ZM118.2 49.9C118.3 49.9 118.4 49.9 118.6 49.8C118.8 49.8 119 49.8 119.2 49.8C119.5 49.8 119.8 49.9 120.1 50C120.4 50.1 120.6 50.2 120.7 50.5C120.8 50.7 120.9 51 120.9 51.3C120.9 51.6 120.8 51.8 120.7 52C120.6 52.2 120.4 52.4 120.1 52.5C119.9 52.6 119.6 52.7 119.2 52.7H118.2V49.9ZM126.2 49C125.7 49 125.2 49.1 124.8 49.3C124.4 49.5 124 49.7 123.7 50.1C123.4 50.4 123.2 50.9 123 51.3C122.8 51.8 122.7 52.3 122.7 52.9C122.7 53.5 122.8 54 122.9 54.4C123.1 54.9 123.3 55.3 123.6 55.6C123.9 55.9 124.2 56.2 124.7 56.4C125.1 56.6 125.6 56.7 126 56.7C126.4 56.7 126.7 56.6 127.1 56.5C127.4 56.4 127.8 56.2 128 56C128.3 55.8 128.5 55.5 128.7 55.2C128.9 54.9 129.1 54.5 129.2 54.1C129.3 53.7 129.4 53.2 129.4 52.7C129.4 52.1 129.3 51.6 129.2 51.2C129 50.7 128.8 50.3 128.5 50C128.2 49.7 127.9 49.4 127.5 49.2C127.1 49.1 126.7 49 126.2 49ZM126.1 49.8C126.4 49.8 126.7 49.9 127 50C127.3 50.1 127.5 50.3 127.7 50.5C127.9 50.7 128 50.9 128.2 51.2C128.3 51.5 128.4 51.7 128.5 52C128.6 52.3 128.6 52.6 128.6 52.9C128.6 53.3 128.5 53.7 128.4 54.1C128.3 54.5 128.1 54.8 127.9 55.1C127.7 55.4 127.4 55.6 127.2 55.8C126.9 56 126.6 56 126.2 56C125.9 56 125.6 55.9 125.4 55.8C125.2 55.7 124.9 55.5 124.7 55.4C124.5 55.2 124.3 55 124.2 54.7C124.1 54.4 124 54.2 123.9 53.9C123.8 53.6 123.8 53.3 123.8 53C123.8 52.7 123.8 52.4 123.9 52.1C124 51.8 124.1 51.5 124.2 51.3C124.3 51 124.5 50.8 124.7 50.6C124.9 50.4 125.1 50.3 125.4 50.1C125.5 49.9 125.8 49.8 126.1 49.8ZM130.7 49.2V53.6C130.7 54.2 130.8 54.7 130.9 55.1C131 55.5 131.2 55.8 131.5 56.1C131.7 56.4 132 56.5 132.3 56.6C132.6 56.7 133 56.8 133.4 56.8C133.8 56.8 134.2 56.7 134.5 56.6C134.8 56.5 135.1 56.3 135.4 56C135.6 55.7 135.8 55.4 136 55C136.1 54.6 136.2 54.1 136.2 53.5V49.2H135.2V53.6C135.2 54.1 135.1 54.6 135 54.9C134.9 55.2 134.6 55.5 134.4 55.7C134.1 55.9 133.8 55.9 133.4 55.9C133.1 55.9 132.8 55.8 132.5 55.7C132.2 55.5 132 55.3 131.9 54.9C131.8 54.6 131.7 54.1 131.7 53.6V49.2H130.7ZM137.8 56.6H138.8V53.6C138.9 53.6 139 53.6 139.2 53.7C139.3 53.7 139.5 53.7 139.6 53.7C139.9 53.7 140.2 53.7 140.5 53.6C140.8 53.5 141 53.4 141.3 53.3C141.5 53.2 141.7 53 141.9 52.8C142.1 52.6 142.2 52.4 142.3 52.1C142.4 51.8 142.4 51.5 142.4 51.2C142.4 50.9 142.3 50.6 142.2 50.3C142.1 50 141.9 49.8 141.7 49.6C141.5 49.4 141.2 49.2 140.9 49.1C140.6 49 140.1 48.9 139.7 48.9C139.3 48.9 139 48.9 138.7 48.9C138.4 48.9 138.1 49 137.9 49V56.6H137.8ZM138.8 49.9C138.9 49.9 139 49.9 139.2 49.8C139.4 49.8 139.5 49.8 139.7 49.8C140.1 49.8 140.4 49.9 140.6 50C140.9 50.1 141.1 50.3 141.2 50.5C141.3 50.7 141.4 51 141.4 51.3C141.4 51.6 141.3 51.9 141.2 52.2C141.1 52.4 140.8 52.6 140.6 52.7C140.3 52.8 140 52.9 139.6 52.9C139.4 52.9 139.3 52.9 139.2 52.9C139.1 52.9 139 52.9 138.8 52.8V49.9ZM143 56.7C143.1 56.7 143.3 56.7 143.4 56.6C143.5 56.5 143.6 56.5 143.6 56.4C143.7 56.3 143.7 56.2 143.7 56C143.7 55.9 143.7 55.7 143.6 55.6C143.5 55.5 143.5 55.4 143.4 55.4C143.3 55.3 143.2 55.3 143.1 55.3C143 55.3 142.9 55.3 142.8 55.4C142.7 55.5 142.6 55.5 142.6 55.6C142.5 55.7 142.5 55.8 142.5 56C142.5 56.1 142.5 56.3 142.6 56.4C142.7 56.5 142.7 56.6 142.8 56.6C142.7 56.7 142.8 56.7 143 56.7ZM150.2 55.6C150.1 55.7 149.9 55.7 149.8 55.8C149.6 55.8 149.5 55.9 149.3 55.9C149.1 55.9 148.9 55.9 148.7 55.9C148.2 55.9 147.8 55.8 147.5 55.7C147.1 55.6 146.8 55.4 146.6 55.1C146.4 54.8 146.2 54.5 146 54.2C145.9 53.8 145.8 53.4 145.8 53C145.8 52.5 145.9 52.1 146 51.7C146.1 51.3 146.3 51 146.6 50.7C146.9 50.4 147.2 50.2 147.5 50.1C147.9 50 148.2 49.9 148.7 49.9C149 49.9 149.3 49.9 149.5 50C149.8 50.1 150 50.1 150.2 50.2L150.4 49.4C150.3 49.4 150.2 49.3 150 49.3C149.8 49.3 149.6 49.2 149.4 49.2C149.2 49.2 148.9 49.1 148.6 49.1C148 49.1 147.5 49.2 147 49.4C146.5 49.6 146.1 49.9 145.8 50.2C145.5 50.5 145.2 51 145 51.4C144.8 51.9 144.7 52.4 144.7 53C144.7 53.6 144.8 54.1 145 54.6C145.2 55.1 145.4 55.5 145.8 55.8C146.1 56.1 146.5 56.4 147 56.5C147.4 56.7 147.9 56.7 148.5 56.7C148.8 56.7 149.1 56.7 149.3 56.6C149.5 56.6 149.8 56.5 150 56.5C150.2 56.4 150.3 56.4 150.5 56.3L150.2 55.6ZM154.4 49C153.9 49 153.4 49.1 153 49.3C152.6 49.5 152.2 49.7 151.9 50.1C151.6 50.4 151.4 50.9 151.2 51.3C151 51.8 150.9 52.3 150.9 52.9C150.9 53.5 151 54 151.1 54.4C151.3 54.9 151.5 55.3 151.8 55.6C152.1 55.9 152.4 56.2 152.9 56.4C153.3 56.6 153.8 56.7 154.2 56.7C154.6 56.7 154.9 56.6 155.3 56.5C155.6 56.4 156 56.2 156.2 56C156.5 55.8 156.7 55.5 156.9 55.2C157.1 54.9 157.3 54.5 157.4 54.1C157.5 53.7 157.6 53.2 157.6 52.7C157.6 52.1 157.5 51.6 157.4 51.2C157.2 50.7 157 50.3 156.7 50C156.4 49.7 156.1 49.4 155.7 49.2C155.4 49.1 154.9 49 154.4 49ZM154.4 49.8C154.7 49.8 155 49.9 155.3 50C155.6 50.1 155.8 50.3 156 50.5C156.2 50.7 156.3 50.9 156.5 51.2C156.6 51.5 156.7 51.7 156.8 52C156.9 52.3 156.9 52.6 156.9 52.9C156.9 53.3 156.8 53.7 156.7 54.1C156.6 54.5 156.4 54.8 156.2 55.1C156 55.4 155.7 55.6 155.5 55.8C155.2 56 154.9 56 154.5 56C154.2 56 153.9 55.9 153.7 55.8C153.5 55.7 153.2 55.5 153 55.4C152.8 55.2 152.6 55 152.5 54.7C152.4 54.4 152.3 54.2 152.2 53.9C152.1 53.6 152.1 53.3 152.1 53C152.1 52.7 152.1 52.4 152.2 52.1C152.3 51.8 152.4 51.5 152.5 51.3C152.6 51 152.8 50.8 153 50.6C153.2 50.4 153.4 50.3 153.7 50.1C153.8 49.9 154 49.8 154.4 49.8ZM165.4 56.6H166.3L165.8 49.2H164.6L163.3 52.8C163.1 53.3 163 53.7 162.9 54.1C162.8 54.5 162.7 54.9 162.6 55.3C162.5 54.9 162.4 54.5 162.3 54.1C162.2 53.7 162 53.3 161.9 52.8L160.6 49.2H159.4L158.9 56.6H159.8L160 53.4C160 53 160 52.6 160.1 52.3C160.1 51.9 160.1 51.5 160.1 51.2C160.1 50.8 160.1 50.5 160.1 50.2C160.2 50.6 160.3 51.1 160.5 51.6C160.6 52.1 160.8 52.6 161 53.1L162.2 56.6H162.9L164.2 53C164.4 52.5 164.6 52 164.7 51.5C164.9 51 165 50.6 165.1 50.1C165.1 50.3 165.1 50.6 165.1 50.8C165.1 51.1 165.1 51.3 165.1 51.6C165.1 51.9 165.1 52.2 165.1 52.4C165.1 52.7 165.1 52.9 165.1 53.2L165.4 56.6Z" fill="#706F6F"/>
</g>
<defs>
<clipPath id="clip0">
<rect width="232.3" height="56.7" fill="white"/>
</clipPath>
</defs>
</svg>
